<?xml version="1.0" standalone="no"?>
<!DOCTYPE svg PUBLIC "-//W3C//DTD SVG 20010904//EN"
 "http://www.w3.org/TR/2001/REC-SVG-20010904/DTD/svg10.dtd">
<svg version="1.0" xmlns="http://www.w3.org/2000/svg"
 width="400.000000pt" height="400.000000pt" viewBox="0 0 400.000000 400.000000"
 preserveAspectRatio="xMidYMid meet">
<metadata>
Created by potrace 1.14, written by Peter Selinger 2001-2017
</metadata>
<g transform="translate(0.000000,400.000000) scale(0.100000,-0.100000)"
fill="#000000" stroke="none">
<path d="M3040 3241 c-87 -28 -169 -78 -235 -146 -99 -101 -139 -171 -143
-255 -3 -48 0 -76 12 -99 21 -39 77 -76 139 -92 40 -10 47 -15 47 -36 0 -13
-9 -42 -20 -63 -16 -32 -18 -40 -6 -40 25 0 66 59 66 96 0 32 2 34 33 34 45 0
130 24 191 54 76 37 128 87 167 158 31 57 34 71 34 143 0 63 -5 89 -22 121
-52 98 -169 154 -263 125z m161 -55 c64 -43 93 -97 97 -181 5 -86 -15 -139
-73 -204 -48 -52 -154 -105 -246 -122 -67 -12 -72 -12 -86 7 -13 17 -15 17
-23 3 -18 -31 -119 7 -160 58 -19 24 -21 37 -17 85 6 73 43 141 125 229 83 89
169 135 237 125 52 -8 56 -3 18 19 -27 16 -27 16 31 11 40 -3 70 -13 97 -30z"/>
<path d="M2813 2922 c15 -9 27 -25 27 -34 0 -10 5 -18 10 -18 6 0 10 8 10 18
0 11 12 24 26 31 15 6 24 14 21 17 -3 3 -16 -1 -28 -9 -19 -14 -25 -14 -50 -1
-39 19 -50 17 -16 -4z"/>
<path d="M2973 2933 c-7 -2 -13 -11 -13 -18 0 -7 -5 -15 -12 -17 -7 -3 -8 -10
-4 -17 6 -9 11 -10 19 -2 14 14 67 14 67 1 0 -5 5 -10 10 -10 6 0 10 7 10 15
0 8 -4 15 -9 15 -5 0 -11 9 -14 20 -5 19 -27 25 -54 13z m37 -18 c0 -8 -7 -15
-15 -15 -8 0 -15 7 -15 15 0 8 7 15 15 15 8 0 15 -7 15 -15z"/>
<path d="M3070 2911 c0 -36 19 -51 27 -22 8 29 63 30 63 1 0 -11 5 -20 10 -20
6 0 10 16 10 35 0 19 -4 35 -10 35 -5 0 -10 -4 -10 -10 0 -5 -13 -10 -30 -10
-16 0 -30 5 -30 10 0 6 -7 10 -15 10 -10 0 -15 -10 -15 -29z"/>
<path d="M2090 2450 c0 -6 -4 -8 -10 -5 -5 3 -10 3 -10 -2 0 -4 -13 -8 -29 -9
-34 -1 -150 -55 -266 -122 -72 -41 -103 -61 -184 -120 -28 -19 -166 -133 -195
-160 -29 -28 -56 -127 -66 -242 -5 -58 -14 -157 -20 -220 -5 -63 -13 -250 -16
-415 -6 -273 -8 -307 -29 -375 -28 -91 -43 -236 -24 -225 7 5 10 4 6 -2 -13
-21 4 -71 27 -77 19 -5 20 -4 4 8 -28 21 -24 87 7 120 14 15 25 35 25 44 1 14
4 13 19 -5 21 -25 37 -29 43 -12 2 5 11 7 22 3 14 -5 17 -15 14 -45 -3 -29 -1
-35 9 -27 10 8 13 6 13 -6 0 -8 11 -18 25 -22 28 -7 70 25 186 141 l60 60 20
-25 c11 -14 35 -52 54 -85 41 -70 59 -95 70 -95 4 0 1 7 -6 16 -7 9 -14 23
-16 32 -1 9 -7 18 -13 20 -5 2 -8 8 -4 13 3 5 0 9 -6 9 -6 0 -8 6 -4 13 4 6 4
9 -1 5 -8 -8 -23 15 -85 135 -22 42 -49 86 -60 97 -11 11 -20 24 -20 30 0 15
-37 12 -71 -6 l-30 -15 7 38 c4 21 11 46 16 57 7 13 6 21 -3 27 -19 12 -25 11
-43 -7 -14 -13 -16 -13 -16 -1 0 8 7 28 15 43 8 16 15 38 15 50 0 11 9 29 20
39 11 10 20 24 20 32 0 22 73 84 93 79 9 -2 15 -1 12 4 -3 4 32 44 78 89 65
64 88 81 112 81 40 0 52 9 61 45 4 17 11 36 17 43 19 24 72 40 132 40 33 0 80
7 104 16 24 9 56 16 72 16 29 0 29 0 30 -67 1 -79 16 -52 18 32 1 28 5 55 9
61 4 6 35 18 70 26 76 19 164 71 202 119 54 67 74 133 74 244 1 98 -3 116 -46
232 -18 48 -26 57 -116 117 -111 75 -157 93 -262 106 -41 6 -87 12 -102 16
-18 3 -28 1 -28 -6z m155 -40 c3 -5 14 -10 24 -10 12 0 17 -8 16 -27 0 -16 -5
-27 -11 -26 -5 1 -21 4 -35 8 -23 6 -27 3 -33 -19 -6 -24 10 -66 25 -66 4 0
10 -12 13 -26 5 -19 11 -24 24 -19 10 4 5 -6 -13 -26 l-30 -32 37 29 c21 16
38 35 38 43 0 8 3 11 6 8 10 -10 62 60 69 94 8 34 18 36 65 8 82 -49 98 -63
86 -74 -6 -5 -9 -9 -7 -7 3 1 15 -28 28 -65 28 -87 29 -163 2 -219 -19 -40
-24 -44 -76 -54 -31 -7 -74 -10 -95 -7 -43 6 -45 2 -24 -58 8 -22 12 -52 9
-67 -6 -31 -37 -68 -58 -68 -7 0 -21 -3 -31 -7 -16 -6 -15 -3 4 21 12 16 22
39 22 51 0 23 -39 80 -40 58 0 -6 5 -15 10 -18 12 -7 13 -35 1 -53 -4 -7 -26
-19 -47 -27 -44 -15 -58 -8 -69 37 -9 34 31 78 70 78 15 0 24 4 20 10 -8 13
-38 13 -69 -1 -36 -17 -49 -62 -31 -106 8 -19 11 -33 7 -31 -4 2 -20 10 -37
17 -92 40 -100 52 -66 98 27 38 38 83 20 84 -8 0 -28 2 -46 5 -19 2 -35 -1
-40 -9 -15 -23 -33 -82 -33 -109 0 -37 -9 -57 -33 -69 -17 -9 -19 -9 -14 4 3
9 -1 21 -8 27 -8 7 -13 16 -10 20 2 4 -7 12 -20 18 -23 11 -30 23 -26 45 1 5
-3 6 -8 2 -6 -3 -7 -13 -4 -21 5 -14 3 -15 -15 -5 -12 7 -22 16 -22 22 0 6 -6
7 -12 3 -8 -5 -7 0 2 11 14 17 13 18 -4 12 -16 -6 -17 -5 -7 7 10 12 16 43 20
109 2 16 32 5 46 -17 9 -13 28 -26 43 -28 15 -3 34 -7 42 -9 18 -5 26 37 10
56 -6 8 -9 18 -6 23 3 4 -8 6 -25 4 -31 -5 -69 20 -69 44 0 27 36 82 55 86 36
6 67 -3 72 -23 6 -20 37 -26 48 -9 3 5 2 17 -3 26 -5 9 -4 35 4 66 8 28 11 55
8 59 -3 5 4 9 15 9 12 0 21 -4 21 -10 0 -5 5 -10 10 -10 6 0 10 7 10 15 0 8 5
15 10 15 6 0 11 15 11 33 1 23 3 26 6 9 4 -18 7 -20 17 -9 8 7 17 27 20 43 6
29 10 31 56 33 27 1 51 -3 55 -9z m-587 -618 c31 -41 27 -92 -7 -92 -26 0 -71
60 -71 95 0 26 2 27 33 21 17 -3 38 -14 45 -24z m88 20 c15 -10 23 -47 14 -62
-14 -22 -50 7 -50 40 0 29 13 38 36 22z m131 -156 c-5 -67 -11 -93 -31 -125
-26 -41 -197 -213 -205 -206 -2 3 2 12 9 21 12 13 11 17 -1 25 -22 14 -28 11
-22 -11 6 -22 -71 -125 -138 -184 -46 -40 -66 -41 -29 -1 16 17 21 28 13 36
-6 6 -7 28 -2 57 4 26 6 59 4 74 -4 36 8 43 40 22 17 -11 25 -25 25 -45 0 -36
9 -36 40 -3 21 21 22 27 10 34 -21 14 -32 12 -24 -2 3 -7 -5 1 -20 17 -26 30
-35 88 -16 100 5 3 23 -1 40 -10 24 -12 33 -13 50 -3 19 12 26 11 91 -16 11
-5 32 12 74 59 61 70 74 103 75 198 0 28 5 47 11 47 9 0 10 -24 6 -84z m-402
54 c3 -5 19 -10 35 -10 23 0 31 -6 36 -24 11 -46 2 -61 -38 -59 -28 2 -37 -2
-41 -17 -3 -11 -13 -20 -22 -20 -16 0 -17 7 -11 54 9 79 23 105 41 76z m185
-166 c0 -21 -19 -36 -21 -16 0 4 -2 20 -4 35 -3 24 -1 26 11 16 8 -6 14 -22
14 -35z m-156 -616 c-5 -7 -9 -25 -8 -40 0 -15 -2 -25 -7 -23 -4 3 -9 1 -11
-5 -1 -5 -18 4 -37 21 -19 16 -31 32 -27 36 3 4 13 -2 21 -13 15 -18 16 -18
38 8 22 27 48 40 31 16z m-109 -100 c3 -22 12 -38 19 -38 16 0 26 -22 26 -56
0 -25 -18 -32 -37 -13 -6 6 -23 9 -39 7 -20 -2 -30 -10 -34 -28 -6 -24 -6 -24
-18 9 -16 46 -17 43 28 90 22 22 40 51 41 64 1 26 5 15 14 -35z"/>
<path d="M2203 2163 c-17 -6 -17 -23 0 -23 8 0 14 7 14 15 0 8 -1 15 -1 14 -1
0 -7 -3 -13 -6z"/>
<path d="M2384 2140 c-11 -4 -27 -22 -34 -39 -34 -83 103 -162 155 -88 22 31
19 83 -6 108 -24 24 -35 19 -20 -9 15 -28 14 -67 -2 -80 -7 -6 -25 -15 -40
-21 -22 -9 -30 -7 -47 11 -38 41 -19 92 41 114 l34 12 -30 1 c-16 0 -39 -4
-51 -9z"/>
<path d="M2090 2103 c0 -1 14 -30 32 -63 31 -59 32 -60 75 -60 l43 0 -22 23
c-13 12 -26 21 -29 20 -4 -1 -28 17 -53 41 -25 23 -46 41 -46 39z"/>
<path d="M2144 2096 c11 -9 29 -16 40 -15 17 1 16 2 -6 9 -14 4 -32 11 -40 15
-7 3 -4 -1 6 -9z"/>
<path d="M2415 2081 c-9 -16 3 -31 26 -31 14 0 19 6 17 17 -4 20 -33 29 -43
14z"/>
<path d="M2251 2024 c0 -11 3 -14 6 -6 3 7 2 16 -1 19 -3 4 -6 -2 -5 -13z"/>
<path d="M2205 1821 c-8 -15 3 -31 21 -31 9 0 14 7 12 17 -4 20 -24 28 -33 14z"/>
<path d="M1490 1241 c0 -25 6 -27 13 -6 4 8 2 17 -3 20 -6 4 -10 -3 -10 -14z"/>
<path d="M2206 1496 c-8 -32 2 -56 20 -49 10 4 14 16 12 36 -4 38 -24 46 -32
13z"/>
<path d="M1966 1481 c-4 -7 -5 -15 -2 -18 9 -9 19 4 14 18 -4 11 -6 11 -12 0z"/>
<path d="M2163 1123 c-15 -5 -17 -32 -4 -52 6 -9 10 -2 13 23 2 20 4 36 3 35
0 0 -6 -3 -12 -6z"/>
<path d="M2116 1061 c-4 -7 -5 -15 -2 -18 9 -9 19 4 14 18 -4 11 -6 11 -12 0z"/>
<path d="M2045 989 c-16 -11 -60 -35 -97 -54 -65 -32 -73 -31 -69 3 3 20 -57
14 -105 -10 -41 -20 -49 -33 -21 -33 7 0 13 -7 13 -15 1 -8 2 -22 3 -30 1 -8
10 -26 20 -39 l19 -25 -5 25 c-3 15 1 30 11 38 20 16 40 -14 60 -90 8 -31 27
-82 44 -115 16 -32 33 -70 37 -84 7 -23 7 -24 -11 -10 -16 12 -15 10 2 -10 19
-23 52 -88 68 -134 4 -10 9 -16 12 -13 3 3 -3 26 -15 51 -11 25 -17 46 -14 46
3 0 1 6 -4 13 -6 6 -16 30 -23 52 -7 22 -23 60 -36 84 -23 41 -64 172 -67 215
-2 15 12 25 60 43 35 14 81 43 110 68 52 48 55 57 8 24z"/>
<path d="M1830 725 c0 -5 5 -17 10 -25 5 -8 10 -10 10 -5 0 6 -5 17 -10 25 -5
8 -10 11 -10 5z"/>
<path d="M1870 626 c0 -4 11 -21 25 -38 14 -16 25 -26 25 -21 -1 11 -50 70
-50 59z"/>
<path d="M2050 525 c0 -5 5 -17 10 -25 5 -8 10 -10 10 -5 0 6 -5 17 -10 25 -5
8 -10 11 -10 5z"/>
<path d="M1881 477 c16 -12 79 -45 79 -42 0 7 -63 45 -74 45 -5 0 -7 -1 -5 -3z"/>
<path d="M1854 373 c-32 -55 -45 -69 -69 -73 -37 -6 -43 -37 -20 -93 24 -57
41 -48 69 39 15 47 18 50 46 46 17 -2 36 -15 46 -30 14 -22 15 -32 4 -80 l-12
-55 45 -38 c25 -21 48 -50 51 -64 6 -23 11 -25 56 -25 44 0 50 3 50 20 0 11
-7 23 -15 27 -9 3 -27 28 -41 56 l-26 50 23 18 c25 19 122 26 146 11 15 -10
34 -58 39 -102 8 -60 14 -80 25 -80 7 0 8 17 3 53 -4 28 -8 70 -8 92 -1 23
-11 57 -24 79 -13 21 -21 41 -18 43 3 3 20 -5 38 -18 18 -13 27 -16 21 -8 -7
9 -29 24 -48 35 -19 10 -35 24 -35 31 0 7 -7 14 -15 14 -8 1 -19 3 -25 4 -5 1
-16 3 -24 4 -8 0 -21 20 -30 44 -13 34 -15 36 -10 10 l5 -32 -75 4 c-41 2 -81
7 -88 11 -8 4 -6 -1 3 -12 9 -10 20 -26 24 -34 8 -13 6 -13 -8 -2 -9 8 -21 11
-26 7 -7 -3 -8 0 -5 9 7 19 -7 21 -25 4 -12 -11 -13 -10 -7 6 5 14 2 17 -9 12
-8 -3 -15 -1 -15 4 0 6 5 10 10 10 6 0 10 7 10 15 0 8 5 15 10 15 6 0 10 -5
10 -12 0 -6 3 -9 6 -6 3 4 -1 18 -8 33 l-15 27 -39 -69z m263 -77 l21 -24 -24
-5 c-20 -3 -22 -2 -13 10 9 11 9 17 0 26 -10 9 -11 8 -6 -5 6 -14 1 -17 -24
-15 -22 1 -31 7 -31 20 0 27 52 22 77 -7z m51 1 c6 -5 12 -13 12 -18 0 -18
-25 -8 -43 16 -17 24 -17 24 0 18 10 -3 24 -10 31 -16z m9 -53 c-3 -3 -12 -4
-19 -1 -8 3 -5 6 6 6 11 1 17 -2 13 -5z"/>
<path d="M1974 421 c4 -5 0 -12 -6 -14 -7 -3 -2 -6 11 -6 20 -1 21 1 11 14
-14 16 -25 21 -16 6z"/>
<path d="M2330 172 c0 -7 -6 -19 -12 -26 -11 -12 -16 -12 -32 2 -19 17 -19 16
0 -13 19 -30 33 -45 45 -45 10 0 16 69 7 83 -6 9 -8 9 -8 -1z"/>
</g>
</svg>
